<?xml version="1.0" standalone="no"?>
<!DOCTYPE svg PUBLIC "-//W3C//DTD SVG 20010904//EN"
 "http://www.w3.org/TR/2001/REC-SVG-20010904/DTD/svg10.dtd">
<svg version="1.0" xmlns="http://www.w3.org/2000/svg"
 width="512.000000pt" height="512.000000pt" viewBox="0 0 512.000000 512.000000"
 preserveAspectRatio="xMidYMid meet">
<metadata>
Created by potrace 1.14, written by Peter Selinger 2001-2017
</metadata>
<g transform="translate(0.000000,512.000000) scale(0.100000,-0.100000)"
fill="#000000" stroke="none">
<path d="M681 4784 c-168 -44 -312 -193 -350 -364 -15 -69 -7 -197 18 -261 44
-115 133 -215 236 -264 l55 -26 1 -507 c0 -279 2 -515 4 -524 5 -26 41 -73 72
-94 25 -17 53 -19 296 -22 l267 -3 0 -159 0 -159 -269 -3 c-254 -3 -271 -4
-297 -24 -15 -11 -37 -33 -48 -48 -20 -27 -21 -42 -26 -551 l-5 -524 -59 -31
c-280 -150 -340 -519 -121 -749 220 -230 600 -186 761 89 79 135 82 315 8 462
-36 71 -136 168 -206 202 l-58 27 0 414 0 415 160 0 160 0 0 -102 c1 -178 22
-253 98 -346 59 -72 85 -95 153 -131 105 -57 134 -60 546 -61 l377 0 85 -59
c204 -139 403 -217 636 -249 67 -9 307 -9 375 1 320 44 601 184 825 411 101
102 118 123 183 220 100 150 172 324 214 514 17 77 21 133 22 272 1 183 -7
244 -50 403 -149 542 -632 960 -1194 1035 -88 11 -349 7 -425 -7 -232 -43
-471 -146 -621 -267 l-42 -34 -383 -1 c-298 -1 -396 -4 -438 -15 -159 -42
-301 -177 -342 -324 -16 -61 -17 -70 -18 -192 l-1 -108 -160 0 -160 0 0 413 0
414 62 32 c237 125 324 412 197 652 -100 186 -330 286 -538 233z m204 -330
c91 -59 98 -193 13 -257 -68 -52 -162 -45 -217 18 -69 79 -42 207 54 251 37
18 114 11 150 -12z m2533 -814 c22 -22 56 -71 76 -110 34 -65 116 -294 116
-324 0 -10 -12 -14 -39 -13 -22 1 -42 4 -44 7 -3 3 -8 30 -11 60 -17 165 -117
305 -268 375 l-73 33 40 4 c157 13 161 12 203 -32z m470 -94 c131 -67 291
-209 383 -340 49 -69 104 -165 97 -171 -2 -1 -55 14 -118 35 -63 21 -153 46
-200 56 -47 9 -88 20 -93 24 -4 3 -23 67 -41 141 -30 117 -55 198 -81 262 -9
22 -3 22 53 -7z m-769 -204 c19 -9 44 -30 55 -45 20 -27 21 -44 24 -303 l3
-274 -801 0 -800 0 0 260 c0 279 2 290 53 338 13 13 37 27 53 32 16 4 333 9
704 9 624 1 678 0 709 -17z m541 -478 c15 -15 22 -523 8 -586 -6 -25 -7 -26
-80 -30 l-68 -4 0 316 0 316 68 -4 c37 -2 69 -6 72 -8z m497 -100 c181 -59
323 -150 323 -206 0 -43 -116 -123 -275 -189 -28 -12 -189 -59 -201 -59 -5 0
-9 99 -9 250 l0 250 30 -6 c17 -3 76 -21 132 -40z m-959 -638 c-3 -258 -4
-276 -23 -302 -11 -15 -36 -35 -55 -46 -33 -17 -68 -18 -727 -16 -684 3 -692
3 -720 24 -15 11 -38 36 -50 54 -22 32 -23 40 -23 296 l0 264 800 0 801 0 -3
-274z m1172 -44 c0 -15 -98 -173 -137 -220 -61 -75 -153 -161 -228 -214 -68
-49 -164 -103 -170 -96 -2 2 11 46 29 98 34 99 54 173 63 225 3 16 10 45 16
64 12 33 14 34 112 56 110 25 175 44 250 73 59 24 65 25 65 14z m-765 -185
c-32 -146 -122 -350 -184 -416 l-41 -43 -77 5 c-43 4 -86 6 -95 7 -22 0 -24
20 -3 20 9 0 37 11 63 24 134 68 234 214 248 361 7 70 7 70 54 72 l42 3 -7
-33z m-2742 -951 c110 -45 127 -194 32 -271 -31 -26 -45 -30 -94 -30 -88 1
-147 52 -157 139 -15 118 108 209 219 162z"/>
<path d="M1855 3186 c-64 -28 -103 -102 -92 -173 7 -45 24 -71 68 -102 37 -28
44 -29 158 -30 139 -2 174 8 217 64 37 49 41 137 8 181 -46 62 -65 69 -202 72
-91 1 -136 -2 -157 -12z"/>
<path d="M2488 3180 c-81 -43 -107 -152 -53 -230 28 -40 84 -70 132 -70 65 0
151 72 154 128 0 10 6 4 12 -13 22 -55 48 -84 92 -100 152 -59 281 110 185
241 -40 55 -132 78 -193 49 -39 -18 -87 -80 -87 -111 0 -10 -11 4 -24 32 -19
41 -33 55 -68 73 -54 26 -101 26 -150 1z"/>
<path d="M1855 2226 c-64 -28 -103 -102 -92 -173 7 -45 24 -71 68 -102 37 -28
44 -29 158 -30 139 -2 174 8 217 64 37 49 41 137 8 181 -46 62 -65 69 -202 72
-91 1 -136 -2 -157 -12z"/>
<path d="M2488 2220 c-81 -43 -107 -152 -53 -230 29 -42 84 -70 138 -70 46 0
114 47 134 92 l17 38 12 -28 c27 -65 100 -108 168 -99 156 21 190 226 50 297
-49 26 -87 25 -142 -1 -45 -22 -81 -68 -83 -104 0 -15 -3 -13 -12 10 -22 56
-37 73 -80 94 -53 26 -101 26 -149 1z"/>
</g>
</svg>
